<svg xmlns="http://www.w3.org/2000/svg" xmlns:xlink="http://www.w3.org/1999/xlink" width="1123" zoomAndPan="magnify" viewBox="0 0 842.25 595.499986" height="794" preserveAspectRatio="xMidYMid meet" version="1.0"><defs><clipPath id="4323c7bd30"><path d="M 0.265625 17 L 571.472656 17 L 571.472656 222 L 0.265625 222 Z M 0.265625 17 " clip-rule="nonzero"/></clipPath><clipPath id="7959d25e18"><rect x="0" width="596" y="0" height="239"/></clipPath></defs><g transform="matrix(1, 0, 0, 1, 135, 178)"><g clip-path="url(#7959d25e18)"><g clip-path="url(#4323c7bd30)"><path fill="#ffffff" d="M 533.246094 69.042969 C 533.296875 69.421875 533.484375 69.519531 534.914062 69.496094 L 552.160156 69.496094 C 552.871094 69.496094 553.578125 69.460938 554.28125 69.382812 C 554.988281 69.304688 555.6875 69.1875 556.378906 69.03125 C 557.074219 68.878906 557.753906 68.683594 558.425781 68.449219 C 559.09375 68.21875 559.75 67.949219 560.390625 67.644531 C 561.03125 67.335938 561.652344 66.996094 562.253906 66.621094 C 562.859375 66.246094 563.4375 65.835938 563.992188 65.394531 C 564.550781 64.953125 565.078125 64.484375 565.582031 63.984375 C 566.085938 63.484375 566.558594 62.957031 567.003906 62.402344 C 567.449219 61.847656 567.859375 61.273438 568.242188 60.671875 C 568.621094 60.070312 568.964844 59.453125 569.273438 58.8125 C 569.585938 58.175781 569.859375 57.519531 570.09375 56.851562 C 570.332031 56.183594 570.527344 55.503906 570.6875 54.8125 C 570.847656 54.117188 570.96875 53.421875 571.050781 52.714844 C 571.132812 52.011719 571.175781 51.304688 571.175781 50.59375 C 571.179688 49.882812 571.140625 49.175781 571.0625 48.46875 C 570.988281 47.765625 570.871094 47.066406 570.714844 46.371094 C 570.464844 45.222656 570.109375 44.101562 569.648438 43.015625 C 569.191406 41.929688 568.632812 40.898438 567.980469 39.917969 C 567.328125 38.9375 566.589844 38.023438 565.765625 37.179688 C 564.941406 36.335938 564.046875 35.578125 563.078125 34.902344 C 562.113281 34.226562 561.09375 33.648438 560.019531 33.164062 C 558.945312 32.679688 557.832031 32.300781 556.6875 32.023438 C 555.542969 31.746094 554.378906 31.578125 553.203125 31.519531 C 552.027344 31.460938 550.851562 31.511719 549.683594 31.671875 C 548.550781 31.820312 547.4375 32.070312 546.351562 32.417969 C 545.261719 32.769531 544.210938 33.214844 543.203125 33.753906 C 542.195312 34.292969 541.242188 34.921875 540.347656 35.636719 C 539.453125 36.347656 538.628906 37.136719 537.878906 38 C 537.125 38.859375 536.457031 39.785156 535.875 40.769531 C 535.289062 41.75 534.800781 42.78125 534.402344 43.851562 C 534.003906 44.925781 533.707031 46.027344 533.507812 47.152344 C 533.308594 48.28125 533.214844 49.414062 533.222656 50.558594 C 533.222656 52.960938 533.175781 66.402344 533.246094 69.042969 Z M 259.464844 183.417969 C 254.636719 183.441406 227.277344 183.515625 219.382812 183.488281 C 213.152344 183.433594 207.078125 182.4375 201.160156 180.492188 C 201.015625 180.449219 200.875 180.460938 200.738281 180.523438 C 200.601562 180.585938 200.503906 180.6875 200.445312 180.824219 L 183.4375 217.675781 C 183.371094 217.8125 183.363281 217.953125 183.410156 218.101562 C 183.453125 218.246094 183.542969 218.359375 183.675781 218.433594 C 186.316406 219.863281 191.667969 221.386719 195.449219 221.386719 C 211.148438 221.625 226.851562 221.433594 242.574219 221.386719 C 242.8125 221.386719 243.050781 221.242188 243.121094 221.027344 L 260.058594 184.273438 C 260.105469 184.179688 260.125 184.078125 260.121094 183.972656 C 260.113281 183.867188 260.078125 183.769531 260.019531 183.683594 C 259.960938 183.59375 259.886719 183.527344 259.789062 183.480469 C 259.695312 183.433594 259.59375 183.410156 259.488281 183.417969 Z M 11.613281 69.78125 C 9.921875 69.78125 9.804688 69.828125 9.804688 70.019531 C 9.695312 70.648438 9.613281 71.285156 9.566406 71.921875 C 8.921875 81.367188 8.660156 83.695312 4 144.714844 C 3.714844 150.425781 3.191406 153.96875 0.789062 159.15625 C 0.167969 160.511719 0.00390625 160.152344 0.859375 161.820312 C 1.953125 164.007812 17.058594 198.046875 19.582031 203.210938 C 19.769531 203.566406 19.84375 203.6875 19.984375 203.6875 C 20.175781 203.6875 20.769531 203.066406 21.101562 202.640625 C 24.601562 198.191406 27.480469 193.339844 29.929688 188.222656 C 37.207031 173.117188 40.394531 156.703125 41.492188 147.640625 C 41.824219 145.023438 41.988281 142.40625 42.203125 139.789062 L 47.058594 77.558594 L 47.582031 70.589844 C 47.652344 69.898438 47.582031 69.804688 46.867188 69.78125 Z M 182.960938 159.15625 C 180.816406 154.578125 179.746094 149.765625 179.75 144.714844 C 179.652344 142.714844 179.011719 135.4375 174.160156 71.921875 C 174.140625 71.265625 174.0625 70.613281 173.921875 69.972656 C 173.824219 69.710938 172.683594 69.78125 172.113281 69.78125 L 136.90625 69.78125 C 136.191406 69.804688 136.097656 69.898438 136.191406 70.589844 L 136.691406 77.558594 C 138.5 100.917969 140.332031 124.28125 142.234375 147.640625 C 143.425781 157.15625 146.660156 173.453125 153.820312 188.222656 C 156.269531 193.339844 159.125 198.191406 162.621094 202.640625 C 162.976562 203.066406 163.5 203.851562 163.761719 203.804688 C 164.238281 203.734375 181.414062 164.746094 182.890625 161.820312 C 183.746094 160.152344 183.601562 160.511719 182.960938 159.15625 Z M 274.808594 137.433594 L 254.066406 137.433594 C 253.8125 137.4375 253.566406 137.410156 253.320312 137.347656 C 253.074219 137.289062 252.84375 137.199219 252.621094 137.082031 C 252.398438 136.960938 252.195312 136.816406 252.007812 136.648438 C 251.824219 136.476562 251.660156 136.285156 251.523438 136.074219 C 251.386719 135.863281 251.277344 135.640625 251.195312 135.398438 C 251.117188 135.160156 251.066406 134.917969 251.046875 134.664062 C 251.027344 134.414062 251.039062 134.164062 251.082031 133.917969 C 251.128906 133.667969 251.203125 133.429688 251.304688 133.199219 L 279.328125 70.757812 C 279.367188 70.664062 279.382812 70.566406 279.375 70.46875 C 279.367188 70.367188 279.335938 70.277344 279.28125 70.191406 C 279.226562 70.109375 279.152344 70.042969 279.066406 69.996094 C 278.976562 69.945312 278.882812 69.921875 278.78125 69.921875 L 247.429688 69.851562 C 247.132812 69.851562 246.839844 69.816406 246.554688 69.746094 C 246.265625 69.671875 245.992188 69.566406 245.734375 69.425781 C 245.472656 69.285156 245.234375 69.113281 245.015625 68.910156 C 244.800781 68.710938 244.613281 68.484375 244.453125 68.234375 C 244.292969 67.984375 244.164062 67.722656 244.070312 67.441406 C 243.980469 67.160156 243.921875 66.871094 243.902344 66.574219 C 243.878906 66.28125 243.898438 65.988281 243.949219 65.695312 C 244.003906 65.40625 244.09375 65.125 244.214844 64.855469 L 265.054688 18.375 C 265.09375 18.28125 265.109375 18.183594 265.101562 18.085938 C 265.09375 17.984375 265.0625 17.894531 265.007812 17.808594 C 264.953125 17.726562 264.878906 17.660156 264.792969 17.613281 C 264.703125 17.5625 264.609375 17.539062 264.507812 17.539062 L 227.398438 17.539062 C 227.160156 17.539062 226.921875 17.683594 226.828125 17.898438 L 204.800781 67.09375 C 202.777344 71.113281 197.328125 82.175781 195.308594 89.40625 C 194.871094 90.890625 194.714844 92.40625 194.832031 93.949219 C 194.871094 94.867188 195.027344 95.769531 195.296875 96.648438 C 195.5625 97.527344 195.9375 98.359375 196.414062 99.148438 C 196.894531 99.933594 197.460938 100.648438 198.121094 101.289062 C 198.777344 101.933594 199.503906 102.484375 200.304688 102.941406 C 203.714844 104.796875 207.363281 105.738281 211.246094 105.773438 L 225.28125 105.773438 C 226.257812 105.773438 208.914062 141.027344 205.441406 152.683594 C 205.03125 154.015625 204.851562 155.382812 204.894531 156.777344 C 204.902344 157.734375 205.03125 158.675781 205.28125 159.601562 C 205.53125 160.527344 205.898438 161.402344 206.378906 162.234375 C 206.859375 163.0625 207.433594 163.816406 208.109375 164.496094 C 208.785156 165.175781 209.539062 165.757812 210.367188 166.242188 C 213.933594 168.433594 218.5 169.097656 221.664062 169.097656 L 261.152344 169.074219 C 261.390625 169.074219 261.628906 168.929688 261.699219 168.71875 L 275.378906 138.269531 C 275.421875 138.175781 275.4375 138.074219 275.425781 137.972656 C 275.417969 137.871094 275.382812 137.777344 275.324219 137.691406 C 275.265625 137.609375 275.191406 137.542969 275.101562 137.496094 C 275.007812 137.453125 274.910156 137.429688 274.808594 137.433594 Z M 109.953125 19.992188 L 74.007812 19.992188 C 73.902344 19.984375 73.796875 20 73.699219 20.035156 C 73.597656 20.074219 73.507812 20.128906 73.429688 20.203125 C 73.355469 20.28125 73.296875 20.367188 73.253906 20.464844 C 73.214844 20.566406 73.195312 20.667969 73.199219 20.777344 C 73.199219 45.707031 72.960938 87.265625 72.960938 183.226562 C 72.960938 190.078125 66.5625 189.460938 66.300781 189.460938 L 48.699219 189.460938 C 47.746094 189.484375 47.652344 189.554688 47.746094 190.578125 C 47.769531 191.460938 58.808594 215.890625 60.949219 220.625 C 61.1875 221.101562 61.664062 221.410156 62.164062 221.410156 C 65.898438 221.480469 80.410156 221.625 84.476562 221.074219 C 88.117188 220.601562 91.613281 219.648438 94.894531 217.9375 C 102.03125 214.226562 106.550781 207.96875 109.050781 199.738281 C 110.285156 195.644531 110.832031 191.339844 110.832031 187.058594 C 110.882812 131.632812 110.832031 76.203125 110.667969 20.753906 C 110.667969 20.542969 110.59375 20.363281 110.445312 20.214844 C 110.296875 20.066406 110.117188 19.992188 109.90625 19.992188 Z M 390.277344 184.039062 C 390.277344 183.703125 390.039062 183.539062 389.707031 183.515625 L 354.855469 183.515625 C 353.714844 183.488281 353.691406 183.464844 353.667969 182.347656 L 353.667969 71.492188 C 353.667969 69.78125 353.546875 69.828125 355.332031 69.828125 L 375.863281 69.828125 C 377.765625 69.828125 377.648438 69.921875 377.648438 68.066406 L 377.648438 33.695312 C 377.648438 31.742188 377.789062 31.886719 375.742188 31.886719 L 292.484375 31.886719 C 290.960938 31.886719 290.699219 31.742188 290.699219 33.621094 L 290.699219 67.996094 C 290.699219 69.972656 290.554688 69.828125 292.601562 69.828125 L 312.917969 69.828125 C 314.703125 69.828125 314.582031 69.734375 314.582031 71.492188 L 314.582031 181.492188 C 314.582031 183.75 314.773438 183.488281 312.5625 183.488281 C 303.757812 183.488281 286.15625 183.441406 281.539062 183.488281 C 280.398438 183.515625 280.113281 184.203125 280.113281 184.203125 L 263.53125 220.339844 C 263.53125 220.339844 263.199219 220.933594 263.34375 221.195312 C 263.484375 221.433594 263.652344 221.386719 264.722656 221.386719 C 306.304688 221.457031 347.863281 221.433594 389.445312 221.433594 C 390.160156 221.410156 390.253906 221.289062 390.277344 220.648438 L 390.277344 184.035156 Z M 489.644531 102.441406 C 489.644531 102.75 489.476562 102.988281 489.167969 103.011719 C 480.9375 103.15625 472.707031 103.109375 464.5 103.109375 C 464.164062 103.0625 463.976562 102.871094 463.976562 102.539062 C 463.855469 92.214844 463.808594 81.863281 463.738281 71.539062 C 463.738281 69.828125 463.59375 69.851562 465.402344 69.875 L 482.839844 69.804688 C 483.816406 69.804688 484.765625 69.851562 485.695312 70.160156 C 487.90625 70.757812 489.5 72.707031 489.621094 75.015625 C 489.761719 85.265625 489.667969 102.441406 489.644531 102.441406 Z M 553.160156 108.246094 C 549.914062 106.550781 546.519531 105.257812 542.96875 104.363281 C 539.417969 103.472656 535.8125 103.007812 532.152344 102.964844 L 527.871094 102.964844 C 526.917969 102.941406 526.917969 102.894531 526.871094 102.015625 L 526.871094 76.917969 C 526.871094 73.777344 526.707031 70.660156 526.277344 67.542969 C 525.707031 63.15625 524.496094 58.953125 522.636719 54.9375 C 520.953125 51.316406 518.730469 48.058594 515.972656 45.167969 C 513.214844 42.277344 510.070312 39.902344 506.53125 38.046875 C 502.875 36.082031 499.03125 34.578125 495.007812 33.539062 C 490.988281 32.503906 486.898438 31.957031 482.746094 31.910156 C 479.105469 31.835938 469.257812 31.910156 465.617188 31.910156 C 463.953125 31.910156 464 32.003906 464 30.363281 L 464 18.636719 C 464 17.898438 463.761719 17.660156 462.90625 17.707031 L 426.792969 17.707031 C 426.792969 17.707031 426.414062 17.707031 426.246094 17.875 C 426.105469 18.015625 426.054688 18.160156 426.054688 18.421875 L 426.054688 31.410156 C 425.867188 32.265625 424.699219 31.765625 424.105469 31.933594 L 401.507812 31.933594 C 400.984375 31.980469 400.839844 32.125 400.792969 32.695312 L 400.792969 67.925781 C 400.792969 70.066406 400.699219 69.875 402.742188 69.875 L 424.460938 69.875 C 426.414062 69.875 426.175781 72.921875 426.175781 72.921875 L 426.175781 100.230469 C 426.175781 100.230469 426.246094 103.011719 424.746094 103.011719 L 389.492188 103.011719 C 387.875 103.011719 388.066406 104.964844 388.066406 104.964844 L 388.066406 139.339844 C 388.066406 139.339844 387.828125 140.957031 389.589844 140.957031 L 424.25 140.957031 C 426.199219 140.957031 426.054688 140.8125 426.054688 142.835938 L 426.054688 219.554688 C 426.054688 221.648438 425.890625 221.480469 428.007812 221.480469 L 462.023438 221.480469 C 464.164062 221.480469 463.976562 221.648438 463.976562 219.578125 L 463.976562 141.789062 C 463.976562 141.097656 464.117188 140.957031 464.761719 140.957031 L 520.019531 140.882812 C 522.351562 140.882812 524.566406 141.359375 526.683594 142.335938 C 527.625 142.753906 528.496094 143.292969 529.285156 143.957031 C 530.078125 144.617188 530.761719 145.378906 531.339844 146.234375 C 531.917969 147.09375 532.363281 148.011719 532.679688 148.996094 C 532.996094 149.976562 533.167969 150.984375 533.199219 152.019531 C 533.390625 161.414062 533.269531 170.8125 533.269531 180.207031 C 533.269531 186.367188 530.726562 188.9375 525.421875 188.9375 L 496.445312 188.9375 C 495.898438 188.984375 495.757812 189.128906 495.78125 189.722656 C 500.15625 200.117188 504.675781 210.441406 509.339844 220.71875 C 509.527344 221.125 509.84375 221.328125 510.292969 221.335938 C 514.335938 221.457031 518.378906 221.386719 522.425781 221.410156 C 525.992188 221.359375 534.722656 221.503906 538.265625 221.171875 C 541.5625 220.910156 544.796875 220.3125 547.972656 219.386719 C 562.007812 215.105469 571.167969 202.78125 571.191406 188.152344 L 571.191406 141.027344 C 571.191406 137.980469 570.953125 134.984375 570.382812 131.988281 C 570.382812 133.84375 569.691406 116.738281 553.160156 108.246094 Z M 553.160156 108.246094 " fill-opacity="1" fill-rule="nonzero"/></g></g></g></svg>